# AST/ASF file generated using VICON BodyLanguage
# -----------------------------------------------
:version 1.10
:name VICON
:units
  mass 1.0
  length 0.45
  angle deg
:documentation
   .ast/.asf automatically generated from VICON data using
   VICON BodyBuilder and BodyLanguage model FoxedUp or BRILLIANT.MOD
:root
   order TX TY TZ RX RY RZ
   axis XYZ
   position 0 0 0  
   orientation 0 0 0 
:bonedata
  begin
     id 1 
     name lhipjoint
     direction 0.624716 -0.669793 0.401383 
     length 2.38238 
     axis 0 0 0  XYZ
  end
  begin
     id 2 
     name lfemur
     direction 0.34202 -0.939693 0  
     length 6.4574  
     axis 0 0 20  XYZ
    dof rx ry rz
    limits (-160.0 20.0)
           (-70.0 70.0)
           (-60.0 70.0)
  end
  begin
     id 3 
     name ltibia
     direction 0.34202 -0.939693 0   
     length 7.68739   
     axis 0 0 20   XYZ
    dof rx
    limits (-10.0 170.0)
  end
  begin
     id 4 
     name lfoot
     direction 0.0681309 -0.187188 0.979959   
     length 2.46615   
     axis -90 7.62852e-016 20   XYZ
    dof rx rz
    limits (-45.0 90.0)
           (-70.0 20.0)
  end
  begin
     id 5 
     name ltoes
     direction 1.53566e-011 -4.21819e-011 1   
     length 1.2376   
     axis -90 7.62852e-016 20   XYZ
    dof rx
    limits (-90.0 20.0)
  end
  begin
     id 6 
     name rhipjoint
     direction -0.644473 -0.655875 0.393043   
     length 2.43293  
     axis 0 0 0  XYZ 
  end
  begin
     id 7 
     name rfemur
     direction -0.34202 -0.939693 0   
     length 6.7025   
     axis 0 0 -20   XYZ
    dof rx ry rz
    limits (-160.0 20.0)
           (-70.0 70.0)
           (-70.0 60.0)
  end
  begin
     id 8 
     name rtibia
     direction -0.34202 -0.939693 0   
     length 7.80547   
     axis 0 0 -20   XYZ
    dof rx
    limits (-10.0 170.0)
 end
 begin
     id 9 
     name rfoot
     direction -0.0756734 -0.207911 0.975216   
     length 2.40315  
     axis -90 -7.62852e-016 -20   XYZ
    dof rx rz
    limits (-45.0 90.0)
           (-20.0 70.0)
  end
  begin
     id 10 
     name rtoes
     direction -1.5353e-011 -4.21879e-011 1   
     length 1.20477   
     axis -90 -7.62852e-016 -20   XYZ
    dof rx
    limits (-90.0 20.0)
  end
  begin
     id 11 
     name lowerback
     direction 0.0160353 0.987463 -0.157037   
     length 2.18572   
     axis 0 0 0   XYZ
    dof rx ry rz
    limits (-20.0 45.0)
           (-30.0 30.0)
           (-30.0 30.0)
  end
  begin
     id 12 
     name upperback
     direction -0.00499661 0.999756 0.0215076   
     length 2.18016   
     axis 0 0 0   XYZ
    dof rx ry rz
    limits (-20.0 45.0)
           (-30.0 30.0)
           (-30.0 30.0)
  end
  begin
     id 13 
     name thorax
     direction -0.00921346 0.995333 0.0960619   
     length 2.24923   
     axis 0 0 0   XYZ
    dof rx ry rz
    limits (-20.0 45.0)
           (-30.0 30.0)
           (-30.0 30.0)
  end
  begin
     id 14 
     name lowerneck
     direction 0.0274184 0.991181 0.12965   
     length 1.70911   
     axis 0 0 0   XYZ
    dof rx ry rz
    limits (-20.0 45.0)
           (-30.0 30.0)
           (-30.0 30.0)
  end
  begin
     id 15 
     name upperneck
     direction 0.0015627 0.999959 -0.00893559   
     length 1.69312   
     axis 0 0 0   XYZ
    dof rx ry rz
    limits (-20.0 45.0)
           (-30.0 30.0)
           (-30.0 30.0)
  end
  begin
     id 16
     name head
     direction -0.00230242 0.999856 -0.0168327  
     length 1.80241  
     axis 0 0 0   XYZ
    dof rx ry rz
    limits (-20.0 45.0)
           (-30.0 30.0)
           (-30.0 30.0)
  end
  begin
     id 17 
     name lclavicle
     direction 0.955523 0.290741 -0.0494489  
     length 3.84275  
     axis 0 0 0   XYZ
    dof ry rz
    limits (-20.0 10.0)
           (0.0 20.0)
  end
  begin
     id 18 
     name lhumerus
     direction 1 -4.48967e-011 -3.18382e-028   
     length 5.17714   
     axis 180 -30 -90   XYZ
    dof rx ry rz
    limits (-60.0 90.0)
           (-90.0 90.0)
           (-90.0 90.0)
  end
  begin
     id 19
     name lradius
     direction 1 -4.48968e-011 -2.22911e-027   
     length 3.43679   
     axis 180 -30 -90   XYZ
    dof rx
    limits (-10.0 170.0)
  end
  begin
     id 20
     name lwrist
     direction 1 -4.48951e-011 -6.32245e-027   
     length 1.7184   
     axis 3.57107e-015 90 90   XYZ
    dof ry
    limits (-180.0 0.0)
 end
  begin
     id 21 
     name lhand
     direction 1 -4.48924e-011 -1.26431e-026   
     length 0.573117   
     axis 8.06912e-015 90 90   XYZ
    dof rx rz
    limits (-90.0 90.0)
           (-45.0 45.0)
  end
  begin
     id 22 
     name lfingers
     direction 1 -4.49001e-011 -2.52965e-026   
     length 0.462062   
     axis 1.61381e-014 90 90   XYZ
    dof rx
    limits (0.0 90.0)
  end
  begin
     id 23
     name lthumb
     direction 0.707107 -6.35008e-011 0.707107   
     length 0.663431   
     axis -90 45 -1.62303e-014   XYZ
    dof rx rz
    limits (-45.0 45.0)
           (-45.0 45.0)
  end
  begin
     id 24 
     name rclavicle
     direction -0.963917 0.256881 -0.0698287   
     length 3.73057  
     axis 0 0 0   XYZ 
    dof ry rz
    limits (-10.0 20.0)
           (-20.0 0.0)
  end
  begin
     id 25 
     name rhumerus
     direction -1 -4.48962e-011 -2.73982e-027  
     length 5.23908   
     axis 180 30 90   XYZ
    dof rx ry rz
    limits (-90.0 60.0)
           (-90.0 90.0)
           (-90.0 90.0)
  end
  begin
     id 26 
     name rradius
     direction -1 -4.48968e-011 -4.33218e-027   
     length 3.46485   
     axis 180 30 90   XYZ
    dof rx
    limits (-10.0 170.0)
  end
  begin
     id 27 
     name rwrist
     direction -1 -4.48989e-011 -6.32372e-027   
     length 1.73243   
     axis 3.57107e-015 -90 -90   XYZ
    dof ry
    limits (-180.0 0.0)
  end
  begin
     id 28
     name rhand
     direction -1 -4.48948e-011 -1.26448e-026   
     length 0.608752   
     axis 8.06912e-015 -90 -90   XYZ
    dof rx rz
    limits (-90.0 90.0)
           (-45.0 45.0)
  end
  begin
     id 29
     name rfingers
     direction -1 -4.48962e-011 -2.52913e-026   
     length 0.490792   
     axis 1.61381e-014 -90 -90   XYZ
    dof rx
    limits (0.0 90.0)
  end
  begin
     id 30
     name rthumb
     direction -0.707107 -6.34878e-011 0.707107   
     length 0.704682   
     axis -90 -45 1.62303e-014   XYZ
    dof rx rz
    limits (-45.0 45.0)
           (-45.0 45.0)
  end
:hierarchy
  begin
    root lhipjoint rhipjoint lowerback
    lhipjoint lfemur
    lfemur ltibia
    ltibia lfoot
    lfoot ltoes
    rhipjoint rfemur
    rfemur rtibia
    rtibia rfoot
    rfoot rtoes
    lowerback upperback
    upperback thorax
    thorax lowerneck lclavicle rclavicle
    lowerneck upperneck
    upperneck head
    lclavicle lhumerus
    lhumerus lradius
    lradius lwrist
    lwrist lhand lthumb
    lhand lfingers
    rclavicle rhumerus
    rhumerus rradius
    rradius rwrist
    rwrist rhand rthumb
    rhand rfingers
  end

#!OML:ASF G:\JayActor3\Patient Classification 1\Patient 1\Session 6\male.ASF
:FULLY-SPECIFIED
:DEGREES
673
root -2.00555 16.8794 -0.0726156 52.4359 -77.2331 -47.5937
lowerback 0.829547 -0.62717 -1.05962
upperback 1.2082 -0.845091 0.0726535
thorax 0.787962 -0.434108 0.668904
lowerneck -0.010939 10.9461 9.54952
upperneck 20.3827 14.6232 -4.27298
head 7.30268 7.22098 -1.92201
rclavicle 3.97569e-015 -1.59028e-015
rhumerus -36.9733 -23.1349 -73.8471
rradius 32.1896
rwrist 0.929885
rhand -15.2378 -8.87385
rfingers 7.12502
rthumb 10.9354 -38.5691
lclavicle 3.97569e-015 -1.59028e-015
lhumerus -33.8095 11.4077 68.9339
lradius 11.2446
lwrist 7.91959
lhand -17.7499 4.631
lfingers 7.12502
lthumb 8.51174 34.4394
rfemur -27.0598 9.28898 6.41162
rtibia 43.4034
rfoot 18.4795 -27.7908
rtoes 10.2511
lfemur 6.71792 18.3013 -14.284
ltibia -1.90833e-014
lfoot -8.19726 -5.58683
ltoes 9.69844
674
root -2.0049 16.8824 -0.0529791 52.0397 -77.0839 -47.1932
lowerback 0.891224 -0.630226 -1.0812
upperback 1.26149 -0.850322 0.0902831
thorax 0.808673 -0.437562 0.699395
lowerneck 0.0259376 10.8983 9.59098
upperneck 20.5339 14.5459 -4.22613
head 7.34047 7.18744 -1.92003
rclavicle 2.28602e-014 0
rhumerus -36.8654 -23.0079 -73.8374
rradius 32.4564
rwrist 0.746159
rhand -15.3465 -8.87264
rfingers 7.12502
rthumb 10.8305 -38.5734
lclavicle 2.28602e-014 0
lhumerus -33.7931 12.5281 68.1817
lradius 10.9465
lwrist 6.93581
lhand -17.7685 4.43897
lfingers 7.12502
lthumb 8.49374 34.2482
rfemur -27.5277 9.41772 6.27442
rtibia 43.958
rfoot 19.5611 -27.6057
rtoes 11.3203
lfemur 6.70407 18.3993 -14.2823
ltibia -3.33958e-014
lfoot -8.15389 -5.81414
ltoes 9.77958
675
root -2.00549 16.885 -0.0335075 51.595 -76.9418 -46.7513
lowerback 0.948586 -0.636058 -1.1194
upperback 1.31239 -0.859281 0.10666
thorax 0.829678 -0.443032 0.73789
lowerneck 0.0644582 10.8515 9.63657
upperneck 20.706 14.47 -4.18074
head 7.38554 7.15438 -1.91871
rclavicle -1.2921e-014 1.11319e-014
rhumerus -36.7688 -22.8609 -73.8416
rradius 32.736
rwrist 0.518456
rhand -15.4983 -8.85513
rfingers 7.12502
rthumb 10.6842 -38.5635
lclavicle -1.2921e-014 1.11319e-014
lhumerus -33.7912 14.0858 67.2065
lradius 10.5392
lwrist 5.52928
lhand -17.8149 4.21849
lfingers 7.12502
lthumb 8.44895 34.0295
rfemur -27.9894 9.51013 6.15296
rtibia 44.5227
rfoot 20.5433 -27.5057
rtoes 12.5376
lfemur 6.70218 18.4924 -14.2903
ltibia -2.06736e-014
lfoot -8.10476 -6.04036
ltoes 9.85213
676
root -2.00722 16.8875 -0.0142143 51.1041 -76.8073 -46.2685
lowerback 1.00246 -0.643035 -1.17254
upperback 1.36008 -0.869801 0.120328
thorax 0.849592 -0.449406 0.78197
lowerneck 0.0995654 10.8063 9.68772
upperneck 20.8989 14.3955 -4.13653
head 7.43889 7.12193 -1.91788
rclavicle -1.80894e-014 1.74931e-014
rhumerus -36.6841 -22.7064 -73.8562
rradius 33.0234
rwrist 0.263349
rhand -15.6786 -8.83448
rfingers 7.12502
rthumb 10.5102 -38.5517
lclavicle -1.80894e-014 1.74931e-014
lhumerus -33.8233 16.0814 65.9985
lradius 10.0365
lwrist 3.69829
lhand -17.894 3.97635
lfingers 7.12502
lthumb 8.37265 33.7904
rfemur -28.445 9.56727 6.05061
rtibia 45.0965
rfoot 21.4282 -27.499
rtoes 13.8723
lfemur 6.70989 18.5812 -14.3095
ltibia -9.54166e-015
lfoot -8.05067 -6.26451
ltoes 9.90574
677
root -2.01002 16.8898 0.00480879 50.6106 -76.6692 -45.7845
lowerback 1.04959 -0.652285 -1.22701
upperback 1.404 -0.883309 0.136376
thorax 0.869589 -0.4573 0.829191
lowerneck 0.126641 10.7632 9.73485
upperneck 21.1113 14.3233 -4.09058
head 7.49992 7.08999 -1.91491
rclavicle -1.51076e-014 4.77083e-015
rhumerus -36.6066 -22.5423 -73.8816
rradius 33.3189
rwrist -0.0127236
rhand -15.8901 -8.79824
rfingers 7.12502
rthumb 10.3062 -38.5257
lclavicle -1.51076e-014 4.77083e-015
lhumerus -33.3935 15.9204 66.356
lradius 9.44616
lwrist 4.41879
lhand -18.4675 4.05592
lfingers 7.12502
lthumb 7.81908 33.8913
rfemur -28.898 9.59661 5.98304
rtibia 45.6765
rfoot 22.1943 -27.6154
rtoes 15.3705
lfemur 6.72017 18.6661 -14.3272
ltibia 1.11319e-014
lfoot -7.99343 -6.48114
ltoes 9.91883
678
root -2.01401 16.892 0.0237617 50.1128 -76.5306 -45.3006
lowerback 1.09049 -0.66114 -1.27935
upperback 1.44867 -0.896236 0.152565
thorax 0.893841 -0.464953 0.87528
lowerneck 0.134687 10.7216 9.77
upperneck 21.3398 14.2513 -4.03789
head 7.56831 7.05738 -1.90668
rclavicle -2.08724e-014 -2.70347e-014
rhumerus -36.5343 -22.3875 -73.9122
rradius 33.6218
rwrist -0.28198
rhand -16.0934 -8.77126
rfingers 7.12502
rthumb 10.11 -38.5084
lclavicle -2.08724e-014 -2.70347e-014
lhumerus -32.89 15.7811 66.7571
lradius 8.75182
lwrist 5.21115
lhand -19.1073 4.13265
lfingers 7.12502
lthumb 7.20157 33.9901
rfemur -29.342 9.60147 5.94915
rtibia 46.2607
rfoot 22.8419 -27.826
rtoes 16.9745
lfemur 6.73857 18.7492 -14.3449
ltibia -1.27222e-014
lfoot -7.9356 -6.69049
ltoes 9.91746
679
root -2.01915 16.8939 0.0428482 49.6031 -76.3866 -44.8106
lowerback 1.12788 -0.672704 -1.32283
upperback 1.49104 -0.912699 0.167696
thorax 0.917672 -0.47429 0.915313
lowerneck 0.135244 10.6812 9.79562
upperneck 21.578 14.1797 -3.98077
head 7.64038 7.02445 -1.89505
rclavicle -6.36111e-015 1.59028e-014
rhumerus -36.4751 -22.241 -73.9469
rradius 33.9302
rwrist -0.53014
rhand -16.2869 -8.74262
rfingers 7.12502
rthumb 9.92338 -38.4887
lclavicle -6.36111e-015 1.59028e-014
lhumerus -32.3159 15.6619 67.1934
lradius 7.94366
lwrist 6.07638
lhand -19.7934 4.21839
lfingers 7.12502
lthumb 6.53927 34.0974
rfemur -29.7714 9.57582 5.95216
rtibia 46.8477
rfoot 23.3451 -28.0985
rtoes 18.5945
lfemur 6.76692 18.8261 -14.3611
ltibia 0
lfoot -7.8793 -6.89097
ltoes 9.90184
680
root -2.02527 16.8954 0.062106 49.0821 -76.2399 -44.3156
lowerback 1.16254 -0.68567 -1.35679
upperback 1.53598 -0.930971 0.180579
thorax 0.945555 -0.484505 0.947662
lowerneck 0.111184 10.6418 9.80514
upperneck 21.8227 14.1078 -3.9171
head 7.71732 6.99037 -1.87751
rclavicle 3.69739e-014 3.02153e-014
rhumerus -36.421 -22.1095 -73.9879
rradius 34.2427
rwrist -0.748334
rhand -16.4571 -8.72812
rfingers 7.12502
rthumb 9.75913 -38.482
lclavicle 3.69739e-014 3.02153e-014
lhumerus -31.6302 15.5685 67.6748
lradius 6.9606
lwrist 7.0203
lhand -20.5413 4.25394
lfingers 7.12502
lthumb 5.81718 34.1541
rfemur -30.1858 9.51844 5.9902
rtibia 47.438
rfoot 23.6804 -28.3714
rtoes 20.1139
lfemur 6.80708 18.8987 -14.3774
ltibia -6.36111e-015
lfoot -7.82163 -7.08241
ltoes 9.91969
681
root -2.03248 16.8963 0.0816538 48.5401 -76.0914 -43.809
lowerback 1.19789 -0.699793 -1.38045
upperback 1.58186 -0.950749 0.189166
thorax 0.973852 -0.49538 0.969846
lowerneck 0.0744774 10.6009 9.80062
upperneck 22.0635 14.0332 -3.85059
head 7.79381 6.9542 -1.85664
rclavicle 2.78299e-015 -1.43125e-014
rhumerus -36.3809 -21.9931 -74.0332
rradius 34.5619
rwrist -0.937556
rhand -16.594 -8.72892
rfingers 7.12502
rthumb 9.62706 -38.4889
lclavicle 2.78299e-015 -1.43125e-014
lhumerus -30.8411 15.4705 68.2022
lradius 5.81192
lwrist 8.06887
lhand -21.3547 4.24989
lfingers 7.12502
lthumb 5.0319 34.1701
rfemur -30.5817 9.42243 6.06329
rtibia 48.0329
rfoot 23.8269 -28.5866
rtoes 21.4089
lfemur 6.86328 18.9662 -14.3951
ltibia -4.77083e-015
lfoot -7.76207 -7.26497
ltoes 9.98361
682
root -2.04045 16.8965 0.101398 47.9996 -75.9403 -43.3108
lowerback 1.23488 -0.716344 -1.39218
upperback 1.6279 -0.973737 0.195149
thorax 1.00124 -0.507732 0.982717
lowerneck 0.026689 10.5611 9.78801
upperneck 22.2923 13.9614 -3.79051
head 7.86844 6.91846 -1.83599
rclavicle -3.29983e-014 -2.22639e-014
rhumerus -36.3497 -21.8791 -74.0931
rradius 34.8816
rwrist -1.12684
rhand -16.7318 -8.72494
rfingers 7.12502
rthumb 9.49414 -38.4911
lclavicle -3.29983e-014 -2.22639e-014
lhumerus -29.9567 15.3927 68.7461
lradius 4.50498
lwrist 9.18349
lhand -22.2179 4.2092
lfingers 7.12502
lthumb 4.19834 34.1476
rfemur -30.9653 9.2858 6.17855
rtibia 48.6331
rfoot 23.757 -28.7213
rtoes 22.3613
lfemur 6.93235 19.0317 -14.4104
ltibia -2.38542e-014
lfoot -7.69802 -7.43867
ltoes 10.1061
